<svg xmlns="http://www.w3.org/2000/svg" xmlns:xlink="http://www.w3.org/1999/xlink" width="500" zoomAndPan="magnify" viewBox="0 0 375 374.999991" height="500" preserveAspectRatio="xMidYMid meet" version="1.0"><defs><g/><clipPath id="4b1bc1a0e9"><path d="M 87.550781 71 L 287.800781 71 L 287.800781 205 L 87.550781 205 Z M 87.550781 71 " clip-rule="nonzero"/></clipPath><clipPath id="3737e2bbdb"><path d="M 87.550781 85.585938 L 87.550781 190.800781 C 87.550781 200.328125 95.273438 208.050781 104.800781 208.050781 L 270.199219 208.050781 C 279.726562 208.050781 287.449219 200.328125 287.449219 190.800781 L 287.449219 85.585938 C 287.449219 76.058594 279.726562 68.335938 270.199219 68.335938 L 104.800781 68.335938 C 95.273438 68.335938 87.550781 76.058594 87.550781 85.585938 Z M 87.550781 85.585938 " clip-rule="nonzero"/></clipPath><clipPath id="4ba72d97d3"><path d="M 286.898438 82.34375 C 286.386719 78.894531 284.519531 76.375 281.539062 74.6875 C 277.746094 72.542969 273.695312 72.007812 269.371094 71.839844 C 261.972656 71.550781 254.878906 72.917969 248.160156 75.777344 C 234.472656 81.601562 221.691406 88.976562 210.4375 98.796875 C 203.511719 104.84375 198.03125 112.015625 194.316406 120.472656 C 192.742188 115.234375 191.542969 112.332031 191.011719 111.160156 C 191.363281 110.816406 191.667969 110.425781 191.90625 109.992188 C 191.90625 109.992188 191.910156 109.988281 191.910156 109.988281 C 191.984375 109.851562 192.050781 109.714844 192.113281 109.570312 C 192.121094 109.558594 192.125 109.550781 192.128906 109.539062 C 192.1875 109.40625 192.238281 109.269531 192.28125 109.132812 C 192.289062 109.109375 192.300781 109.089844 192.304688 109.066406 C 192.347656 108.9375 192.378906 108.808594 192.410156 108.675781 C 192.417969 108.640625 192.425781 108.609375 192.433594 108.578125 C 192.460938 108.449219 192.480469 108.316406 192.496094 108.183594 C 192.5 108.144531 192.507812 108.109375 192.511719 108.070312 C 192.53125 107.898438 192.539062 107.726562 192.539062 107.550781 C 192.539062 107.375 192.53125 107.199219 192.511719 107.027344 C 192.511719 107 192.503906 106.976562 192.503906 106.953125 C 192.484375 106.804688 192.464844 106.65625 192.433594 106.515625 C 192.429688 106.503906 192.429688 106.496094 192.425781 106.488281 C 192.210938 105.492188 191.703125 104.605469 190.992188 103.921875 C 193.339844 98.058594 198.484375 88.03125 207.761719 82.417969 C 208.3125 82.085938 208.488281 81.371094 208.15625 80.824219 C 207.824219 80.277344 207.109375 80.101562 206.5625 80.433594 C 196.785156 86.347656 191.441406 96.53125 188.945312 102.726562 C 188.738281 102.664062 188.527344 102.617188 188.3125 102.582031 C 188.261719 102.574219 188.210938 102.566406 188.160156 102.558594 C 188.089844 102.550781 188.015625 102.542969 187.941406 102.535156 C 187.796875 102.523438 187.652344 102.511719 187.503906 102.511719 C 187 102.511719 186.519531 102.59375 186.0625 102.730469 C 183.570312 96.535156 178.222656 86.347656 168.445312 80.433594 C 167.898438 80.101562 167.183594 80.277344 166.851562 80.824219 C 166.519531 81.371094 166.695312 82.085938 167.242188 82.417969 C 176.527344 88.035156 181.667969 98.0625 184.015625 103.929688 C 183.0625 104.84375 182.464844 106.125 182.464844 107.550781 C 182.464844 108.964844 183.050781 110.242188 183.992188 111.160156 C 183.464844 112.332031 182.265625 115.234375 180.691406 120.472656 C 176.972656 112.015625 171.492188 104.84375 164.566406 98.796875 C 153.316406 88.976562 140.53125 81.601562 126.84375 75.777344 C 120.125 72.917969 113.03125 71.546875 105.632812 71.839844 C 101.3125 72.007812 97.257812 72.542969 93.46875 74.6875 C 90.484375 76.375 88.617188 78.894531 88.109375 82.34375 C 87.570312 85.984375 88.25 89.503906 89.632812 92.800781 C 91.761719 97.875 94.140625 102.84375 96.527344 107.800781 C 97.945312 110.742188 98.988281 113.761719 99.433594 116.992188 C 99.996094 121.097656 100.394531 125.230469 101.164062 129.292969 C 103.050781 139.261719 112.527344 147.726562 124.082031 146.066406 C 124.332031 146.027344 124.59375 146.058594 124.605469 146.058594 C 121.707031 148.496094 118.691406 150.945312 115.78125 153.507812 C 113.78125 155.265625 112.742188 157.601562 112.3125 160.21875 C 111.742188 163.699219 112.230469 167.089844 113.238281 170.40625 C 116.316406 180.515625 122.082031 188.972656 129.46875 196.390625 C 132.378906 199.3125 135.59375 201.847656 139.355469 203.628906 C 141.597656 204.695312 145.105469 204.789062 147.566406 204.402344 C 152.863281 203.570312 156.28125 201.5 160.503906 198.292969 C 164.613281 195.171875 167.824219 191.21875 170.90625 187.140625 C 175.410156 181.183594 179.695312 175.09375 182.699219 168.226562 L 182.699219 168.230469 C 182.699219 168.230469 183.039062 189.449219 187.503906 189.449219 C 191.964844 189.449219 192.304688 168.230469 192.304688 168.230469 L 192.304688 168.226562 C 195.308594 175.09375 199.59375 181.183594 204.097656 187.140625 C 207.179688 191.21875 210.390625 195.171875 214.5 198.292969 C 218.722656 201.5 222.140625 203.570312 227.4375 204.402344 C 229.898438 204.789062 233.40625 204.695312 235.652344 203.628906 C 239.410156 201.847656 242.625 199.3125 245.535156 196.390625 C 252.921875 188.972656 258.6875 180.515625 261.765625 170.40625 C 262.773438 167.089844 263.265625 163.699219 262.691406 160.21875 C 262.261719 157.601562 261.226562 155.265625 259.222656 153.507812 C 256.3125 150.945312 253.296875 148.496094 250.398438 146.058594 C 250.410156 146.058594 250.671875 146.027344 250.921875 146.066406 C 262.476562 147.726562 271.953125 139.261719 273.839844 129.292969 C 274.609375 125.230469 275.007812 121.097656 275.570312 116.992188 C 276.015625 113.761719 277.058594 110.742188 278.476562 107.800781 C 280.863281 102.84375 283.242188 97.875 285.371094 92.800781 C 286.757812 89.503906 287.4375 85.984375 286.898438 82.34375 Z M 286.898438 82.34375 " clip-rule="nonzero"/></clipPath></defs><g fill="#5a0f82" fill-opacity="1"><g transform="translate(99.290314, 277.939631)"><g><path d="M 8.15625 0 L 1.28125 0 L 1.28125 -11.578125 L 8.15625 -11.578125 L 8.15625 -10.46875 L 2.46875 -10.46875 L 2.46875 -6.34375 L 7.984375 -6.34375 L 7.984375 -5.21875 L 2.46875 -5.21875 L 2.46875 -1.109375 L 8.15625 -1.109375 Z M 8.15625 0 "/></g></g></g><g fill="#5a0f82" fill-opacity="1"><g transform="translate(108.712404, 277.939631)"><g><path d="M 4.484375 -5.46875 C 2.128906 -6.007812 0.953125 -7.015625 0.953125 -8.484375 C 0.953125 -9.578125 1.332031 -10.394531 2.09375 -10.9375 C 2.851562 -11.46875 3.742188 -11.734375 4.765625 -11.734375 C 7.023438 -11.734375 8.363281 -10.894531 8.78125 -9.21875 L 7.484375 -9.21875 C 7.253906 -10.21875 6.347656 -10.71875 4.765625 -10.71875 C 3.648438 -10.71875 2.875 -10.390625 2.4375 -9.734375 C 2.257812 -9.484375 2.171875 -9.171875 2.171875 -8.796875 C 2.171875 -8.078125 2.554688 -7.523438 3.328125 -7.140625 C 3.691406 -6.953125 4.46875 -6.703125 5.65625 -6.390625 C 6.832031 -6.085938 7.6875 -5.75 8.21875 -5.375 C 8.957031 -4.851562 9.328125 -4.125 9.328125 -3.1875 C 9.328125 -2.007812 8.867188 -1.125 7.953125 -0.53125 C 7.179688 -0.03125 6.226562 0.21875 5.09375 0.21875 C 2.519531 0.21875 1.03125 -0.753906 0.625 -2.703125 L 2.046875 -2.703125 C 2.253906 -1.484375 3.269531 -0.875 5.09375 -0.875 C 6.382812 -0.875 7.285156 -1.226562 7.796875 -1.9375 C 7.992188 -2.21875 8.09375 -2.601562 8.09375 -3.09375 C 8.09375 -3.570312 7.90625 -3.960938 7.53125 -4.265625 C 7 -4.703125 5.984375 -5.101562 4.484375 -5.46875 Z M 4.484375 -5.46875 "/></g></g></g><g fill="#5a0f82" fill-opacity="1"><g transform="translate(118.474645, 277.939631)"><g><path d="M 0.34375 -10.5 L 0.34375 -11.609375 L 7.140625 -11.609375 L 7.140625 -10.5 L 4.34375 -10.5 L 4.34375 -0.03125 L 3.140625 -0.03125 L 3.140625 -10.5 Z M 0.34375 -10.5 "/></g></g></g><g fill="#5a0f82" fill-opacity="1"><g transform="translate(125.957899, 277.939631)"><g><path d="M 8.15625 0 L 1.28125 0 L 1.28125 -11.578125 L 8.15625 -11.578125 L 8.15625 -10.46875 L 2.46875 -10.46875 L 2.46875 -6.34375 L 7.984375 -6.34375 L 7.984375 -5.21875 L 2.46875 -5.21875 L 2.46875 -1.109375 L 8.15625 -1.109375 Z M 7.140625 -15.1875 L 5.28125 -12.765625 L 4.328125 -12.765625 L 5.6875 -15.1875 Z M 7.140625 -15.1875 "/></g></g></g><g fill="#5a0f82" fill-opacity="1"><g transform="translate(135.37999, 277.939631)"><g><path d="M 0.34375 -10.5 L 0.34375 -11.609375 L 7.140625 -11.609375 L 7.140625 -10.5 L 4.34375 -10.5 L 4.34375 -0.03125 L 3.140625 -0.03125 L 3.140625 -10.5 Z M 0.34375 -10.5 "/></g></g></g><g fill="#5a0f82" fill-opacity="1"><g transform="translate(142.863244, 277.939631)"><g><path d="M 2.46875 0 L 1.28125 0 L 1.28125 -11.578125 L 2.46875 -11.578125 Z M 2.46875 0 "/></g></g></g><g fill="#5a0f82" fill-opacity="1"><g transform="translate(146.604871, 277.939631)"><g><path d="M 11.890625 -3.546875 C 11.460938 -2.429688 10.757812 -1.539062 9.78125 -0.875 C 8.789062 -0.175781 7.707031 0.171875 6.53125 0.171875 C 4.9375 0.171875 3.570312 -0.414062 2.4375 -1.59375 C 1.320312 -2.75 0.765625 -4.140625 0.765625 -5.765625 C 0.765625 -6.566406 0.910156 -7.332031 1.203125 -8.0625 C 1.503906 -8.78125 1.914062 -9.410156 2.4375 -9.953125 C 3.570312 -11.128906 4.9375 -11.71875 6.53125 -11.71875 C 7.707031 -11.71875 8.785156 -11.382812 9.765625 -10.71875 C 10.742188 -10.039062 11.445312 -9.148438 11.875 -8.046875 L 10.5625 -8.046875 C 9.9375 -9.191406 9.007812 -9.953125 7.78125 -10.328125 C 7.363281 -10.441406 6.890625 -10.5 6.359375 -10.5 C 5.828125 -10.5 5.285156 -10.375 4.734375 -10.125 C 4.171875 -9.863281 3.6875 -9.519531 3.28125 -9.09375 C 2.394531 -8.164062 1.953125 -7.054688 1.953125 -5.765625 C 1.953125 -4.484375 2.394531 -3.382812 3.28125 -2.46875 C 4.175781 -1.53125 5.257812 -1.0625 6.53125 -1.0625 C 7.394531 -1.0625 8.191406 -1.285156 8.921875 -1.734375 C 9.628906 -2.191406 10.179688 -2.796875 10.578125 -3.546875 Z M 11.890625 -3.546875 "/></g></g></g><g fill="#5a0f82" fill-opacity="1"><g transform="translate(159.003263, 277.939631)"><g><path d="M 3.140625 -4.25 L 7.34375 -4.25 L 5.265625 -9.578125 Z M 10.328125 0 L 9.03125 0 L 7.796875 -3.140625 L 2.703125 -3.140625 L 1.46875 0 L 0.171875 0 L 5.265625 -12.375 Z M 10.328125 0 "/></g></g></g><g fill="#5a0f82" fill-opacity="1"><g transform="translate(169.496824, 277.939631)"><g/></g></g><g fill="#5a0f82" fill-opacity="1"><g transform="translate(174.088814, 277.939631)"><g><path d="M 4.46875 -5.875 C 3.8125 -5.394531 3.359375 -5.03125 3.109375 -4.78125 C 2.554688 -4.226562 2.28125 -3.710938 2.28125 -3.234375 C 2.28125 -2.660156 2.488281 -2.148438 2.90625 -1.703125 C 3.3125 -1.242188 3.804688 -1.015625 4.390625 -1.015625 C 5.015625 -1.015625 5.707031 -1.375 6.46875 -2.09375 C 6.65625 -2.269531 6.835938 -2.445312 7.015625 -2.625 Z M 4.375 -7.78125 C 4.507812 -7.632812 4.640625 -7.484375 4.765625 -7.328125 C 4.929688 -7.453125 5.113281 -7.582031 5.3125 -7.71875 C 5.488281 -7.84375 5.65625 -7.988281 5.8125 -8.15625 C 6.175781 -8.507812 6.359375 -8.898438 6.359375 -9.328125 C 6.359375 -9.742188 6.21875 -10.070312 5.9375 -10.3125 C 5.65625 -10.550781 5.34375 -10.679688 5 -10.703125 C 4.644531 -10.710938 4.328125 -10.601562 4.046875 -10.375 C 3.765625 -10.15625 3.625 -9.796875 3.625 -9.296875 C 3.625 -8.796875 3.875 -8.289062 4.375 -7.78125 Z M 10.125 -4.515625 C 9.957031 -4.273438 9.445312 -3.640625 8.59375 -2.609375 L 10.578125 0 L 9.015625 0.03125 L 7.765625 -1.609375 C 7.191406 -1.046875 6.734375 -0.65625 6.390625 -0.4375 C 5.703125 -0.0078125 5.09375 0.203125 4.5625 0.203125 C 4.03125 0.203125 3.554688 0.117188 3.140625 -0.046875 C 2.722656 -0.210938 2.367188 -0.445312 2.078125 -0.75 C 1.429688 -1.382812 1.109375 -2.179688 1.109375 -3.140625 C 1.109375 -4.253906 1.65625 -5.222656 2.75 -6.046875 C 3.070312 -6.265625 3.40625 -6.5 3.75 -6.75 C 2.925781 -7.695312 2.515625 -8.53125 2.515625 -9.25 C 2.515625 -9.96875 2.742188 -10.566406 3.203125 -11.046875 C 3.648438 -11.503906 4.25 -11.734375 5 -11.734375 C 5.71875 -11.734375 6.304688 -11.515625 6.765625 -11.078125 C 7.234375 -10.617188 7.46875 -10.039062 7.46875 -9.34375 C 7.46875 -8.59375 7.023438 -7.851562 6.140625 -7.125 C 5.898438 -6.925781 5.675781 -6.738281 5.46875 -6.5625 L 7.84375 -3.515625 C 8.070312 -3.796875 8.296875 -4.070312 8.515625 -4.34375 L 9.15625 -5.15625 Z M 10.125 -4.515625 "/></g></g></g><g fill="#5a0f82" fill-opacity="1"><g transform="translate(185.806906, 277.939631)"><g/></g></g><g fill="#5a0f82" fill-opacity="1"><g transform="translate(190.398896, 277.939631)"><g><path d="M 8.828125 -3.234375 C 8.828125 -2.753906 8.722656 -2.300781 8.515625 -1.875 C 8.296875 -1.4375 8.003906 -1.082031 7.640625 -0.8125 C 6.929688 -0.269531 5.988281 0 4.8125 0 L 1.28125 0 L 1.28125 -11.578125 L 4.40625 -11.578125 C 6.09375 -11.578125 7.191406 -11.050781 7.703125 -10 C 7.890625 -9.625 7.984375 -9.242188 7.984375 -8.859375 C 7.984375 -8.472656 7.953125 -8.175781 7.890625 -7.96875 C 7.828125 -7.738281 7.738281 -7.519531 7.625 -7.3125 C 7.363281 -6.875 7.03125 -6.5625 6.625 -6.375 C 7.300781 -6.195312 7.835938 -5.835938 8.234375 -5.296875 C 8.628906 -4.734375 8.828125 -4.046875 8.828125 -3.234375 Z M 6.796875 -8.671875 C 6.796875 -9.847656 6 -10.4375 4.40625 -10.4375 L 2.46875 -10.4375 L 2.46875 -6.828125 L 4.75 -6.828125 C 5.363281 -6.828125 5.859375 -6.976562 6.234375 -7.28125 C 6.609375 -7.582031 6.796875 -8.046875 6.796875 -8.671875 Z M 7.640625 -3.453125 C 7.640625 -3.796875 7.578125 -4.097656 7.453125 -4.359375 C 7.316406 -4.617188 7.144531 -4.84375 6.9375 -5.03125 C 6.488281 -5.425781 5.957031 -5.625 5.34375 -5.625 L 2.46875 -5.625 L 2.46875 -1.140625 L 5.15625 -1.140625 C 5.882812 -1.140625 6.476562 -1.347656 6.9375 -1.765625 C 7.40625 -2.203125 7.640625 -2.765625 7.640625 -3.453125 Z M 7.640625 -3.453125 "/></g></g></g><g fill="#5a0f82" fill-opacity="1"><g transform="translate(199.565886, 277.939631)"><g><path d="M 8.15625 0 L 1.28125 0 L 1.28125 -11.578125 L 8.15625 -11.578125 L 8.15625 -10.46875 L 2.46875 -10.46875 L 2.46875 -6.34375 L 7.984375 -6.34375 L 7.984375 -5.21875 L 2.46875 -5.21875 L 2.46875 -1.109375 L 8.15625 -1.109375 Z M 8.15625 0 "/></g></g></g><g fill="#5a0f82" fill-opacity="1"><g transform="translate(208.987977, 277.939631)"><g><path d="M 11.9375 0 L 10.140625 -8.234375 L 6.671875 0.6875 L 3.1875 -8.234375 L 1.390625 0 L 0.171875 0 L 2.875 -12.34375 L 6.671875 -2.4375 L 10.46875 -12.34375 L 13.15625 0 Z M 11.9375 0 "/></g></g></g><g fill="#5a0f82" fill-opacity="1"><g transform="translate(222.304767, 277.939631)"><g><path d="M 6.34375 -3.296875 L 0.640625 -3.296875 L 0.640625 -4.265625 L 6.34375 -4.265625 Z M 6.34375 -3.296875 "/></g></g></g><g fill="#5a0f82" fill-opacity="1"><g transform="translate(229.277796, 277.939631)"><g><path d="M 8.15625 0 L 1.28125 0 L 1.28125 -11.578125 L 8.15625 -11.578125 L 8.15625 -10.46875 L 2.46875 -10.46875 L 2.46875 -6.34375 L 7.984375 -6.34375 L 7.984375 -5.21875 L 2.46875 -5.21875 L 2.46875 -1.109375 L 8.15625 -1.109375 Z M 8.15625 0 "/></g></g></g><g fill="#5a0f82" fill-opacity="1"><g transform="translate(238.699887, 277.939631)"><g><path d="M 4.484375 -5.46875 C 2.128906 -6.007812 0.953125 -7.015625 0.953125 -8.484375 C 0.953125 -9.578125 1.332031 -10.394531 2.09375 -10.9375 C 2.851562 -11.46875 3.742188 -11.734375 4.765625 -11.734375 C 7.023438 -11.734375 8.363281 -10.894531 8.78125 -9.21875 L 7.484375 -9.21875 C 7.253906 -10.21875 6.347656 -10.71875 4.765625 -10.71875 C 3.648438 -10.71875 2.875 -10.390625 2.4375 -9.734375 C 2.257812 -9.484375 2.171875 -9.171875 2.171875 -8.796875 C 2.171875 -8.078125 2.554688 -7.523438 3.328125 -7.140625 C 3.691406 -6.953125 4.46875 -6.703125 5.65625 -6.390625 C 6.832031 -6.085938 7.6875 -5.75 8.21875 -5.375 C 8.957031 -4.851562 9.328125 -4.125 9.328125 -3.1875 C 9.328125 -2.007812 8.867188 -1.125 7.953125 -0.53125 C 7.179688 -0.03125 6.226562 0.21875 5.09375 0.21875 C 2.519531 0.21875 1.03125 -0.753906 0.625 -2.703125 L 2.046875 -2.703125 C 2.253906 -1.484375 3.269531 -0.875 5.09375 -0.875 C 6.382812 -0.875 7.285156 -1.226562 7.796875 -1.9375 C 7.992188 -2.21875 8.09375 -2.601562 8.09375 -3.09375 C 8.09375 -3.570312 7.90625 -3.960938 7.53125 -4.265625 C 7 -4.703125 5.984375 -5.101562 4.484375 -5.46875 Z M 4.484375 -5.46875 "/></g></g></g><g fill="#5a0f82" fill-opacity="1"><g transform="translate(248.462127, 277.939631)"><g><path d="M 0.34375 -10.5 L 0.34375 -11.609375 L 7.140625 -11.609375 L 7.140625 -10.5 L 4.34375 -10.5 L 4.34375 -0.03125 L 3.140625 -0.03125 L 3.140625 -10.5 Z M 0.34375 -10.5 "/></g></g></g><g fill="#5a0f82" fill-opacity="1"><g transform="translate(255.945382, 277.939631)"><g><path d="M 3.140625 -4.25 L 7.34375 -4.25 L 5.265625 -9.578125 Z M 10.328125 0 L 9.03125 0 L 7.796875 -3.140625 L 2.703125 -3.140625 L 1.46875 0 L 0.171875 0 L 5.265625 -12.375 Z M 10.328125 0 "/></g></g></g><g fill="#5a0f82" fill-opacity="1"><g transform="translate(266.438942, 277.939631)"><g><path d="M 2.46875 -5.71875 L 5.15625 -5.71875 C 5.820312 -5.71875 6.375 -5.941406 6.8125 -6.390625 C 7.25 -6.859375 7.46875 -7.429688 7.46875 -8.109375 C 7.46875 -8.785156 7.257812 -9.34375 6.84375 -9.78125 C 6.414062 -10.21875 5.851562 -10.4375 5.15625 -10.4375 L 2.46875 -10.4375 Z M 8.65625 -8.078125 C 8.65625 -7.066406 8.300781 -6.226562 7.59375 -5.5625 C 6.957031 -4.96875 6.191406 -4.644531 5.296875 -4.59375 L 8.84375 0 L 7.25 0 L 3.859375 -4.578125 L 2.46875 -4.578125 L 2.46875 0 L 1.28125 0 L 1.28125 -11.578125 L 4.984375 -11.578125 C 6.015625 -11.578125 6.882812 -11.25 7.59375 -10.59375 C 8.300781 -9.914062 8.65625 -9.078125 8.65625 -8.078125 Z M 8.65625 -8.078125 "/></g></g></g><path fill="#b4931c" d="M 80.464844 303.75 C 93.40625 297.0625 108.503906 295.519531 122.855469 295.167969 C 138.304688 294.773438 153.710938 295.785156 169.074219 297.191406 C 184.613281 298.644531 200.109375 300.449219 215.691406 301.550781 C 223.4375 302.078125 231.230469 302.386719 239.023438 302.429688 C 246.328125 302.476562 253.722656 302.519531 261.03125 301.640625 C 268.382812 300.757812 275.734375 298.691406 281.367188 293.628906 C 286.296875 289.179688 289.863281 282.402344 288.5 275.667969 C 287.925781 272.851562 283.523438 273.511719 283.523438 276.328125 C 283.570312 282.316406 281.234375 287.375 276.613281 291.164062 C 271.421875 295.433594 264.464844 296.929688 257.992188 297.722656 C 243.292969 299.4375 228.324219 298.867188 213.578125 297.851562 C 183.644531 295.742188 153.800781 290.855469 123.734375 291.910156 C 108.417969 292.394531 92.921875 294.15625 79.585938 302.253906 C 78.617188 302.828125 79.453125 304.28125 80.464844 303.75 Z M 80.464844 303.75 " fill-opacity="1" fill-rule="nonzero"/><path fill="#b4931c" d="M 86.273438 293.980469 C 99.394531 289.179688 112.949219 288.035156 126.816406 287.949219 C 127.566406 287.949219 127.828125 286.671875 126.992188 286.585938 C 113.128906 284.515625 98.6875 287.816406 85.96875 293.40625 C 85.703125 293.539062 85.921875 294.113281 86.273438 293.980469 Z M 86.273438 293.980469 " fill-opacity="1" fill-rule="nonzero"/><path fill="#b4931c" d="M 276.21875 301.683594 C 281.28125 300.980469 285.945312 298.558594 289.46875 294.902344 C 291.273438 293.054688 292.8125 290.941406 293.871094 288.609375 C 294.75 286.761719 296.378906 283.460938 295.058594 281.566406 C 294.441406 280.6875 293.386719 280.554688 292.59375 281.257812 C 291.097656 282.535156 291.316406 285.441406 290.699219 287.289062 C 289.996094 289.402344 288.984375 291.382812 287.707031 293.1875 C 284.847656 297.105469 280.753906 299.964844 276.085938 301.242188 C 275.777344 301.285156 275.910156 301.726562 276.21875 301.683594 Z M 276.21875 301.683594 " fill-opacity="1" fill-rule="nonzero"/><g clip-path="url(#4b1bc1a0e9)"><g clip-path="url(#3737e2bbdb)"><g clip-path="url(#4ba72d97d3)"><path fill="#5a0f82" d="M 87.570312 71.546875 L 87.570312 204.789062 L 287.4375 204.789062 L 287.4375 71.546875 Z M 87.570312 71.546875 " fill-opacity="1" fill-rule="nonzero"/></g></g></g><g fill="#5a0f82" fill-opacity="0.4"><g transform="translate(81.912402, 255.192634)"><g><path d="M 21.109375 0 L 4.6875 0 C 2.3125 0 1.210938 -0.523438 1.390625 -1.578125 C 1.472656 -2.191406 1.710938 -2.640625 2.109375 -2.921875 C 2.503906 -3.210938 2.953125 -3.5 3.453125 -3.78125 C 3.960938 -4.070312 4.46875 -4.46875 4.96875 -4.96875 C 5.476562 -5.476562 5.867188 -6.21875 6.140625 -7.1875 C 6.359375 -7.800781 6.554688 -8.769531 6.734375 -10.09375 L 10.359375 -36.078125 C 10.535156 -37.316406 10.625 -38.285156 10.625 -38.984375 C 10.625 -39.992188 10.445312 -40.738281 10.09375 -41.21875 C 9.738281 -41.707031 9.34375 -42.09375 8.90625 -42.375 C 8.46875 -42.664062 8.09375 -42.960938 7.78125 -43.265625 C 7.476562 -43.578125 7.367188 -44.019531 7.453125 -44.59375 C 7.546875 -45.207031 7.875 -45.625 8.4375 -45.84375 C 9.007812 -46.0625 9.914062 -46.171875 11.15625 -46.171875 L 25.796875 -46.171875 C 30.453125 -46.171875 34.332031 -45.519531 37.4375 -44.21875 C 40.539062 -42.925781 42.96875 -41.191406 44.71875 -39.015625 C 46.476562 -36.835938 47.65625 -34.429688 48.25 -31.796875 C 48.84375 -29.160156 48.96875 -26.519531 48.625 -23.875 C 48.175781 -20.707031 47.269531 -17.695312 45.90625 -14.84375 C 44.550781 -11.988281 42.726562 -9.4375 40.4375 -7.1875 C 38.15625 -4.945312 35.40625 -3.1875 32.1875 -1.90625 C 28.976562 -0.632812 25.285156 0 21.109375 0 Z M 20.78125 -3.4375 C 25.09375 -3.4375 28.578125 -4.210938 31.234375 -5.765625 C 33.898438 -7.328125 35.910156 -9.40625 37.265625 -12 C 38.628906 -14.601562 39.535156 -17.421875 39.984375 -20.453125 C 40.597656 -24.671875 40.332031 -28.472656 39.1875 -31.859375 C 38.039062 -35.242188 36.113281 -37.925781 33.40625 -39.90625 C 30.707031 -41.882812 27.289062 -42.875 23.15625 -42.875 C 21.570312 -42.875 20.472656 -42.695312 19.859375 -42.34375 C 19.242188 -42 18.828125 -41.210938 18.609375 -39.984375 L 14.046875 -7.390625 C 13.921875 -6.503906 13.988281 -5.765625 14.25 -5.171875 C 14.507812 -4.578125 15.144531 -4.140625 16.15625 -3.859375 C 17.164062 -3.578125 18.707031 -3.4375 20.78125 -3.4375 Z M 20.78125 -3.4375 "/></g></g></g><g fill="#5a0f82" fill-opacity="0.4"><g transform="translate(131.919116, 255.192634)"><g><path d="M 16.75 0.65625 C 13.851562 0.65625 11.335938 0.0859375 9.203125 -1.046875 C 7.066406 -2.191406 5.40625 -3.785156 4.21875 -5.828125 C 3.03125 -7.878906 2.4375 -10.25 2.4375 -12.9375 C 2.4375 -15.570312 2.953125 -18.050781 3.984375 -20.375 C 5.023438 -22.707031 6.4375 -24.765625 8.21875 -26.546875 C 10 -28.328125 12.050781 -29.734375 14.375 -30.765625 C 16.707031 -31.804688 19.171875 -32.328125 21.765625 -32.328125 C 24.753906 -32.328125 27.28125 -31.722656 29.34375 -30.515625 C 31.414062 -29.304688 33 -27.695312 34.09375 -25.6875 C 35.195312 -23.6875 35.75 -21.476562 35.75 -19.0625 C 35.75 -16.289062 35.265625 -13.707031 34.296875 -11.3125 C 33.335938 -8.914062 31.988281 -6.816406 30.25 -5.015625 C 28.507812 -3.210938 26.484375 -1.816406 24.171875 -0.828125 C 21.867188 0.160156 19.394531 0.65625 16.75 0.65625 Z M 17.546875 -2.90625 C 19.128906 -2.90625 20.535156 -3.390625 21.765625 -4.359375 C 22.992188 -5.328125 24.023438 -6.601562 24.859375 -8.1875 C 25.703125 -9.769531 26.34375 -11.492188 26.78125 -13.359375 C 27.21875 -15.222656 27.4375 -17.082031 27.4375 -18.9375 C 27.4375 -20.695312 27.226562 -22.320312 26.8125 -23.8125 C 26.394531 -25.3125 25.710938 -26.519531 24.765625 -27.4375 C 23.828125 -28.363281 22.519531 -28.828125 20.84375 -28.828125 C 19.125 -28.828125 17.613281 -28.351562 16.3125 -27.40625 C 15.019531 -26.457031 13.921875 -25.210938 13.015625 -23.671875 C 12.117188 -22.140625 11.441406 -20.460938 10.984375 -18.640625 C 10.523438 -16.816406 10.296875 -15.023438 10.296875 -13.265625 C 10.335938 -11.367188 10.597656 -9.628906 11.078125 -8.046875 C 11.566406 -6.460938 12.347656 -5.207031 13.421875 -4.28125 C 14.503906 -3.363281 15.878906 -2.90625 17.546875 -2.90625 Z M 17.546875 -2.90625 "/></g></g></g><g fill="#5a0f82" fill-opacity="0.4"><g transform="translate(170.116867, 255.192634)"><g><path d="M 37.796875 -6.59375 C 38.015625 -6.59375 38.222656 -6.503906 38.421875 -6.328125 C 38.617188 -6.148438 38.695312 -5.863281 38.65625 -5.46875 C 38.613281 -4.632812 38.269531 -3.742188 37.625 -2.796875 C 36.988281 -1.859375 36.132812 -1.066406 35.0625 -0.421875 C 33.988281 0.210938 32.722656 0.53125 31.265625 0.53125 C 29.421875 0.53125 28.101562 -0.101562 27.3125 -1.375 C 26.519531 -2.65625 26.210938 -4.441406 26.390625 -6.734375 L 27.25 -20.046875 C 27.375 -22.253906 27.179688 -24.003906 26.671875 -25.296875 C 26.171875 -26.597656 25.066406 -27.25 23.359375 -27.25 C 21.898438 -27.25 20.390625 -26.5 18.828125 -25 C 17.273438 -23.507812 15.847656 -21.363281 14.546875 -18.5625 C 13.242188 -15.769531 12.242188 -12.394531 11.546875 -8.4375 L 10.421875 -2.25 C 10.285156 -1.320312 9.800781 -0.769531 8.96875 -0.59375 L 4.546875 0.53125 C 4.023438 0.65625 3.617188 0.5625 3.328125 0.25 C 3.046875 -0.0507812 2.945312 -0.488281 3.03125 -1.0625 L 6.203125 -22.953125 C 6.335938 -23.878906 6.289062 -24.570312 6.0625 -25.03125 C 5.84375 -25.5 5.554688 -25.84375 5.203125 -26.0625 C 4.859375 -26.28125 4.539062 -26.5 4.25 -26.71875 C 3.96875 -26.9375 3.828125 -27.265625 3.828125 -27.703125 C 3.828125 -28.191406 4.066406 -28.65625 4.546875 -29.09375 C 5.035156 -29.53125 6.160156 -30.101562 7.921875 -30.8125 C 9.984375 -31.6875 11.566406 -32.125 12.671875 -32.125 C 13.804688 -32.125 14.289062 -31.550781 14.125 -30.40625 L 12.9375 -22.625 C 14.601562 -25.613281 16.578125 -27.953125 18.859375 -29.640625 C 21.148438 -31.335938 23.640625 -32.1875 26.328125 -32.1875 C 29.398438 -32.1875 31.609375 -31.148438 32.953125 -29.078125 C 34.296875 -27.015625 34.832031 -24.140625 34.5625 -20.453125 L 33.84375 -7.453125 C 33.800781 -6.617188 33.820312 -5.957031 33.90625 -5.46875 C 34 -4.988281 34.328125 -4.75 34.890625 -4.75 C 35.335938 -4.75 35.710938 -4.898438 36.015625 -5.203125 C 36.328125 -5.515625 36.632812 -5.820312 36.9375 -6.125 C 37.25 -6.4375 37.535156 -6.59375 37.796875 -6.59375 Z M 37.796875 -6.59375 "/></g></g></g><g fill="#5a0f82" fill-opacity="0.4"><g transform="translate(211.745148, 255.192634)"><g><path d="M 37.796875 -6.59375 C 38.015625 -6.59375 38.222656 -6.503906 38.421875 -6.328125 C 38.617188 -6.148438 38.695312 -5.863281 38.65625 -5.46875 C 38.613281 -4.632812 38.269531 -3.742188 37.625 -2.796875 C 36.988281 -1.859375 36.132812 -1.066406 35.0625 -0.421875 C 33.988281 0.210938 32.722656 0.53125 31.265625 0.53125 C 29.421875 0.53125 28.101562 -0.101562 27.3125 -1.375 C 26.519531 -2.65625 26.210938 -4.441406 26.390625 -6.734375 L 27.25 -20.046875 C 27.375 -22.253906 27.179688 -24.003906 26.671875 -25.296875 C 26.171875 -26.597656 25.066406 -27.25 23.359375 -27.25 C 21.898438 -27.25 20.390625 -26.5 18.828125 -25 C 17.273438 -23.507812 15.847656 -21.363281 14.546875 -18.5625 C 13.242188 -15.769531 12.242188 -12.394531 11.546875 -8.4375 L 10.421875 -2.25 C 10.285156 -1.320312 9.800781 -0.769531 8.96875 -0.59375 L 4.546875 0.53125 C 4.023438 0.65625 3.617188 0.5625 3.328125 0.25 C 3.046875 -0.0507812 2.945312 -0.488281 3.03125 -1.0625 L 6.203125 -22.953125 C 6.335938 -23.878906 6.289062 -24.570312 6.0625 -25.03125 C 5.84375 -25.5 5.554688 -25.84375 5.203125 -26.0625 C 4.859375 -26.28125 4.539062 -26.5 4.25 -26.71875 C 3.96875 -26.9375 3.828125 -27.265625 3.828125 -27.703125 C 3.828125 -28.191406 4.066406 -28.65625 4.546875 -29.09375 C 5.035156 -29.53125 6.160156 -30.101562 7.921875 -30.8125 C 9.984375 -31.6875 11.566406 -32.125 12.671875 -32.125 C 13.804688 -32.125 14.289062 -31.550781 14.125 -30.40625 L 12.9375 -22.625 C 14.601562 -25.613281 16.578125 -27.953125 18.859375 -29.640625 C 21.148438 -31.335938 23.640625 -32.1875 26.328125 -32.1875 C 29.398438 -32.1875 31.609375 -31.148438 32.953125 -29.078125 C 34.296875 -27.015625 34.832031 -24.140625 34.5625 -20.453125 L 33.84375 -7.453125 C 33.800781 -6.617188 33.820312 -5.957031 33.90625 -5.46875 C 34 -4.988281 34.328125 -4.75 34.890625 -4.75 C 35.335938 -4.75 35.710938 -4.898438 36.015625 -5.203125 C 36.328125 -5.515625 36.632812 -5.820312 36.9375 -6.125 C 37.25 -6.4375 37.535156 -6.59375 37.796875 -6.59375 Z M 37.796875 -6.59375 "/></g></g></g><g fill="#5a0f82" fill-opacity="0.4"><g transform="translate(253.373429, 255.192634)"><g><path d="M 36.875 -6.59375 C 37.09375 -6.59375 37.289062 -6.503906 37.46875 -6.328125 C 37.644531 -6.148438 37.710938 -5.863281 37.671875 -5.46875 C 37.628906 -4.632812 37.285156 -3.742188 36.640625 -2.796875 C 36.003906 -1.859375 35.15625 -1.066406 34.09375 -0.421875 C 33.039062 0.210938 31.8125 0.53125 30.40625 0.53125 C 29.394531 0.53125 28.484375 0.34375 27.671875 -0.03125 C 26.859375 -0.40625 26.21875 -1.085938 25.75 -2.078125 C 25.289062 -3.066406 25.085938 -4.484375 25.140625 -6.328125 C 23.773438 -4.304688 22.046875 -2.632812 19.953125 -1.3125 C 17.867188 0 15.59375 0.65625 13.125 0.65625 C 11.144531 0.65625 9.332031 0.195312 7.6875 -0.71875 C 6.039062 -1.644531 4.722656 -2.988281 3.734375 -4.75 C 2.742188 -6.507812 2.25 -8.644531 2.25 -11.15625 C 2.25 -14.007812 2.707031 -16.695312 3.625 -19.21875 C 4.550781 -21.75 5.816406 -23.992188 7.421875 -25.953125 C 9.023438 -27.910156 10.878906 -29.453125 12.984375 -30.578125 C 15.097656 -31.703125 17.367188 -32.265625 19.796875 -32.265625 C 21.460938 -32.265625 22.921875 -32.039062 24.171875 -31.59375 C 25.429688 -31.15625 26.476562 -30.9375 27.3125 -30.9375 C 28.28125 -30.9375 29.210938 -31.164062 30.109375 -31.625 C 31.015625 -32.09375 31.84375 -32.328125 32.59375 -32.328125 C 33.289062 -32.328125 33.757812 -32.09375 34 -31.625 C 34.25 -31.164062 34.328125 -30.519531 34.234375 -29.6875 L 32.78125 -7.453125 C 32.738281 -6.617188 32.78125 -5.957031 32.90625 -5.46875 C 33.039062 -4.988281 33.394531 -4.75 33.96875 -4.75 C 34.363281 -4.75 34.726562 -4.898438 35.0625 -5.203125 C 35.394531 -5.515625 35.703125 -5.820312 35.984375 -6.125 C 36.273438 -6.4375 36.570312 -6.59375 36.875 -6.59375 Z M 16.296875 -4.484375 C 18.003906 -4.484375 19.570312 -5.175781 21 -6.5625 C 22.4375 -7.945312 23.625 -9.757812 24.5625 -12 C 25.507812 -14.25 26.070312 -16.671875 26.25 -19.265625 L 26.390625 -21.234375 C 26.566406 -23.742188 25.972656 -25.644531 24.609375 -26.9375 C 23.242188 -28.238281 21.640625 -28.890625 19.796875 -28.890625 C 18.210938 -28.890625 16.828125 -28.394531 15.640625 -27.40625 C 14.453125 -26.414062 13.445312 -25.140625 12.625 -23.578125 C 11.8125 -22.015625 11.1875 -20.34375 10.75 -18.5625 C 10.3125 -16.789062 10.09375 -15.085938 10.09375 -13.453125 C 10.09375 -11.210938 10.390625 -9.441406 10.984375 -8.140625 C 11.578125 -6.847656 12.359375 -5.914062 13.328125 -5.34375 C 14.296875 -4.769531 15.285156 -4.484375 16.296875 -4.484375 Z M 16.296875 -4.484375 "/></g></g></g><g fill="#5a0f82" fill-opacity="1"><g transform="translate(78.996272, 252.276497)"><g><path d="M 21.109375 0 L 4.6875 0 C 2.3125 0 1.210938 -0.523438 1.390625 -1.578125 C 1.472656 -2.191406 1.710938 -2.640625 2.109375 -2.921875 C 2.503906 -3.210938 2.953125 -3.5 3.453125 -3.78125 C 3.960938 -4.070312 4.46875 -4.46875 4.96875 -4.96875 C 5.476562 -5.476562 5.867188 -6.21875 6.140625 -7.1875 C 6.359375 -7.800781 6.554688 -8.769531 6.734375 -10.09375 L 10.359375 -36.078125 C 10.535156 -37.316406 10.625 -38.285156 10.625 -38.984375 C 10.625 -39.992188 10.445312 -40.738281 10.09375 -41.21875 C 9.738281 -41.707031 9.34375 -42.09375 8.90625 -42.375 C 8.46875 -42.664062 8.09375 -42.960938 7.78125 -43.265625 C 7.476562 -43.578125 7.367188 -44.019531 7.453125 -44.59375 C 7.546875 -45.207031 7.875 -45.625 8.4375 -45.84375 C 9.007812 -46.0625 9.914062 -46.171875 11.15625 -46.171875 L 25.796875 -46.171875 C 30.453125 -46.171875 34.332031 -45.519531 37.4375 -44.21875 C 40.539062 -42.925781 42.96875 -41.191406 44.71875 -39.015625 C 46.476562 -36.835938 47.65625 -34.429688 48.25 -31.796875 C 48.84375 -29.160156 48.96875 -26.519531 48.625 -23.875 C 48.175781 -20.707031 47.269531 -17.695312 45.90625 -14.84375 C 44.550781 -11.988281 42.726562 -9.4375 40.4375 -7.1875 C 38.15625 -4.945312 35.40625 -3.1875 32.1875 -1.90625 C 28.976562 -0.632812 25.285156 0 21.109375 0 Z M 20.78125 -3.4375 C 25.09375 -3.4375 28.578125 -4.210938 31.234375 -5.765625 C 33.898438 -7.328125 35.910156 -9.40625 37.265625 -12 C 38.628906 -14.601562 39.535156 -17.421875 39.984375 -20.453125 C 40.597656 -24.671875 40.332031 -28.472656 39.1875 -31.859375 C 38.039062 -35.242188 36.113281 -37.925781 33.40625 -39.90625 C 30.707031 -41.882812 27.289062 -42.875 23.15625 -42.875 C 21.570312 -42.875 20.472656 -42.695312 19.859375 -42.34375 C 19.242188 -42 18.828125 -41.210938 18.609375 -39.984375 L 14.046875 -7.390625 C 13.921875 -6.503906 13.988281 -5.765625 14.25 -5.171875 C 14.507812 -4.578125 15.144531 -4.140625 16.15625 -3.859375 C 17.164062 -3.578125 18.707031 -3.4375 20.78125 -3.4375 Z M 20.78125 -3.4375 "/></g></g></g><g fill="#5a0f82" fill-opacity="1"><g transform="translate(129.002987, 252.276497)"><g><path d="M 16.75 0.65625 C 13.851562 0.65625 11.335938 0.0859375 9.203125 -1.046875 C 7.066406 -2.191406 5.40625 -3.785156 4.21875 -5.828125 C 3.03125 -7.878906 2.4375 -10.25 2.4375 -12.9375 C 2.4375 -15.570312 2.953125 -18.050781 3.984375 -20.375 C 5.023438 -22.707031 6.4375 -24.765625 8.21875 -26.546875 C 10 -28.328125 12.050781 -29.734375 14.375 -30.765625 C 16.707031 -31.804688 19.171875 -32.328125 21.765625 -32.328125 C 24.753906 -32.328125 27.28125 -31.722656 29.34375 -30.515625 C 31.414062 -29.304688 33 -27.695312 34.09375 -25.6875 C 35.195312 -23.6875 35.75 -21.476562 35.75 -19.0625 C 35.75 -16.289062 35.265625 -13.707031 34.296875 -11.3125 C 33.335938 -8.914062 31.988281 -6.816406 30.25 -5.015625 C 28.507812 -3.210938 26.484375 -1.816406 24.171875 -0.828125 C 21.867188 0.160156 19.394531 0.65625 16.75 0.65625 Z M 17.546875 -2.90625 C 19.128906 -2.90625 20.535156 -3.390625 21.765625 -4.359375 C 22.992188 -5.328125 24.023438 -6.601562 24.859375 -8.1875 C 25.703125 -9.769531 26.34375 -11.492188 26.78125 -13.359375 C 27.21875 -15.222656 27.4375 -17.082031 27.4375 -18.9375 C 27.4375 -20.695312 27.226562 -22.320312 26.8125 -23.8125 C 26.394531 -25.3125 25.710938 -26.519531 24.765625 -27.4375 C 23.828125 -28.363281 22.519531 -28.828125 20.84375 -28.828125 C 19.125 -28.828125 17.613281 -28.351562 16.3125 -27.40625 C 15.019531 -26.457031 13.921875 -25.210938 13.015625 -23.671875 C 12.117188 -22.140625 11.441406 -20.460938 10.984375 -18.640625 C 10.523438 -16.816406 10.296875 -15.023438 10.296875 -13.265625 C 10.335938 -11.367188 10.597656 -9.628906 11.078125 -8.046875 C 11.566406 -6.460938 12.347656 -5.207031 13.421875 -4.28125 C 14.503906 -3.363281 15.878906 -2.90625 17.546875 -2.90625 Z M 17.546875 -2.90625 "/></g></g></g><g fill="#5a0f82" fill-opacity="1"><g transform="translate(167.200738, 252.276497)"><g><path d="M 37.796875 -6.59375 C 38.015625 -6.59375 38.222656 -6.503906 38.421875 -6.328125 C 38.617188 -6.148438 38.695312 -5.863281 38.65625 -5.46875 C 38.613281 -4.632812 38.269531 -3.742188 37.625 -2.796875 C 36.988281 -1.859375 36.132812 -1.066406 35.0625 -0.421875 C 33.988281 0.210938 32.722656 0.53125 31.265625 0.53125 C 29.421875 0.53125 28.101562 -0.101562 27.3125 -1.375 C 26.519531 -2.65625 26.210938 -4.441406 26.390625 -6.734375 L 27.25 -20.046875 C 27.375 -22.253906 27.179688 -24.003906 26.671875 -25.296875 C 26.171875 -26.597656 25.066406 -27.25 23.359375 -27.25 C 21.898438 -27.25 20.390625 -26.5 18.828125 -25 C 17.273438 -23.507812 15.847656 -21.363281 14.546875 -18.5625 C 13.242188 -15.769531 12.242188 -12.394531 11.546875 -8.4375 L 10.421875 -2.25 C 10.285156 -1.320312 9.800781 -0.769531 8.96875 -0.59375 L 4.546875 0.53125 C 4.023438 0.65625 3.617188 0.5625 3.328125 0.25 C 3.046875 -0.0507812 2.945312 -0.488281 3.03125 -1.0625 L 6.203125 -22.953125 C 6.335938 -23.878906 6.289062 -24.570312 6.0625 -25.03125 C 5.84375 -25.5 5.554688 -25.84375 5.203125 -26.0625 C 4.859375 -26.28125 4.539062 -26.5 4.25 -26.71875 C 3.96875 -26.9375 3.828125 -27.265625 3.828125 -27.703125 C 3.828125 -28.191406 4.066406 -28.65625 4.546875 -29.09375 C 5.035156 -29.53125 6.160156 -30.101562 7.921875 -30.8125 C 9.984375 -31.6875 11.566406 -32.125 12.671875 -32.125 C 13.804688 -32.125 14.289062 -31.550781 14.125 -30.40625 L 12.9375 -22.625 C 14.601562 -25.613281 16.578125 -27.953125 18.859375 -29.640625 C 21.148438 -31.335938 23.640625 -32.1875 26.328125 -32.1875 C 29.398438 -32.1875 31.609375 -31.148438 32.953125 -29.078125 C 34.296875 -27.015625 34.832031 -24.140625 34.5625 -20.453125 L 33.84375 -7.453125 C 33.800781 -6.617188 33.820312 -5.957031 33.90625 -5.46875 C 34 -4.988281 34.328125 -4.75 34.890625 -4.75 C 35.335938 -4.75 35.710938 -4.898438 36.015625 -5.203125 C 36.328125 -5.515625 36.632812 -5.820312 36.9375 -6.125 C 37.25 -6.4375 37.535156 -6.59375 37.796875 -6.59375 Z M 37.796875 -6.59375 "/></g></g></g><g fill="#5a0f82" fill-opacity="1"><g transform="translate(208.829019, 252.276497)"><g><path d="M 37.796875 -6.59375 C 38.015625 -6.59375 38.222656 -6.503906 38.421875 -6.328125 C 38.617188 -6.148438 38.695312 -5.863281 38.65625 -5.46875 C 38.613281 -4.632812 38.269531 -3.742188 37.625 -2.796875 C 36.988281 -1.859375 36.132812 -1.066406 35.0625 -0.421875 C 33.988281 0.210938 32.722656 0.53125 31.265625 0.53125 C 29.421875 0.53125 28.101562 -0.101562 27.3125 -1.375 C 26.519531 -2.65625 26.210938 -4.441406 26.390625 -6.734375 L 27.25 -20.046875 C 27.375 -22.253906 27.179688 -24.003906 26.671875 -25.296875 C 26.171875 -26.597656 25.066406 -27.25 23.359375 -27.25 C 21.898438 -27.25 20.390625 -26.5 18.828125 -25 C 17.273438 -23.507812 15.847656 -21.363281 14.546875 -18.5625 C 13.242188 -15.769531 12.242188 -12.394531 11.546875 -8.4375 L 10.421875 -2.25 C 10.285156 -1.320312 9.800781 -0.769531 8.96875 -0.59375 L 4.546875 0.53125 C 4.023438 0.65625 3.617188 0.5625 3.328125 0.25 C 3.046875 -0.0507812 2.945312 -0.488281 3.03125 -1.0625 L 6.203125 -22.953125 C 6.335938 -23.878906 6.289062 -24.570312 6.0625 -25.03125 C 5.84375 -25.5 5.554688 -25.84375 5.203125 -26.0625 C 4.859375 -26.28125 4.539062 -26.5 4.25 -26.71875 C 3.96875 -26.9375 3.828125 -27.265625 3.828125 -27.703125 C 3.828125 -28.191406 4.066406 -28.65625 4.546875 -29.09375 C 5.035156 -29.53125 6.160156 -30.101562 7.921875 -30.8125 C 9.984375 -31.6875 11.566406 -32.125 12.671875 -32.125 C 13.804688 -32.125 14.289062 -31.550781 14.125 -30.40625 L 12.9375 -22.625 C 14.601562 -25.613281 16.578125 -27.953125 18.859375 -29.640625 C 21.148438 -31.335938 23.640625 -32.1875 26.328125 -32.1875 C 29.398438 -32.1875 31.609375 -31.148438 32.953125 -29.078125 C 34.296875 -27.015625 34.832031 -24.140625 34.5625 -20.453125 L 33.84375 -7.453125 C 33.800781 -6.617188 33.820312 -5.957031 33.90625 -5.46875 C 34 -4.988281 34.328125 -4.75 34.890625 -4.75 C 35.335938 -4.75 35.710938 -4.898438 36.015625 -5.203125 C 36.328125 -5.515625 36.632812 -5.820312 36.9375 -6.125 C 37.25 -6.4375 37.535156 -6.59375 37.796875 -6.59375 Z M 37.796875 -6.59375 "/></g></g></g><g fill="#5a0f82" fill-opacity="1"><g transform="translate(250.457299, 252.276497)"><g><path d="M 36.875 -6.59375 C 37.09375 -6.59375 37.289062 -6.503906 37.46875 -6.328125 C 37.644531 -6.148438 37.710938 -5.863281 37.671875 -5.46875 C 37.628906 -4.632812 37.285156 -3.742188 36.640625 -2.796875 C 36.003906 -1.859375 35.15625 -1.066406 34.09375 -0.421875 C 33.039062 0.210938 31.8125 0.53125 30.40625 0.53125 C 29.394531 0.53125 28.484375 0.34375 27.671875 -0.03125 C 26.859375 -0.40625 26.21875 -1.085938 25.75 -2.078125 C 25.289062 -3.066406 25.085938 -4.484375 25.140625 -6.328125 C 23.773438 -4.304688 22.046875 -2.632812 19.953125 -1.3125 C 17.867188 0 15.59375 0.65625 13.125 0.65625 C 11.144531 0.65625 9.332031 0.195312 7.6875 -0.71875 C 6.039062 -1.644531 4.722656 -2.988281 3.734375 -4.75 C 2.742188 -6.507812 2.25 -8.644531 2.25 -11.15625 C 2.25 -14.007812 2.707031 -16.695312 3.625 -19.21875 C 4.550781 -21.75 5.816406 -23.992188 7.421875 -25.953125 C 9.023438 -27.910156 10.878906 -29.453125 12.984375 -30.578125 C 15.097656 -31.703125 17.367188 -32.265625 19.796875 -32.265625 C 21.460938 -32.265625 22.921875 -32.039062 24.171875 -31.59375 C 25.429688 -31.15625 26.476562 -30.9375 27.3125 -30.9375 C 28.28125 -30.9375 29.210938 -31.164062 30.109375 -31.625 C 31.015625 -32.09375 31.84375 -32.328125 32.59375 -32.328125 C 33.289062 -32.328125 33.757812 -32.09375 34 -31.625 C 34.25 -31.164062 34.328125 -30.519531 34.234375 -29.6875 L 32.78125 -7.453125 C 32.738281 -6.617188 32.78125 -5.957031 32.90625 -5.46875 C 33.039062 -4.988281 33.394531 -4.75 33.96875 -4.75 C 34.363281 -4.75 34.726562 -4.898438 35.0625 -5.203125 C 35.394531 -5.515625 35.703125 -5.820312 35.984375 -6.125 C 36.273438 -6.4375 36.570312 -6.59375 36.875 -6.59375 Z M 16.296875 -4.484375 C 18.003906 -4.484375 19.570312 -5.175781 21 -6.5625 C 22.4375 -7.945312 23.625 -9.757812 24.5625 -12 C 25.507812 -14.25 26.070312 -16.671875 26.25 -19.265625 L 26.390625 -21.234375 C 26.566406 -23.742188 25.972656 -25.644531 24.609375 -26.9375 C 23.242188 -28.238281 21.640625 -28.890625 19.796875 -28.890625 C 18.210938 -28.890625 16.828125 -28.394531 15.640625 -27.40625 C 14.453125 -26.414062 13.445312 -25.140625 12.625 -23.578125 C 11.8125 -22.015625 11.1875 -20.34375 10.75 -18.5625 C 10.3125 -16.789062 10.09375 -15.085938 10.09375 -13.453125 C 10.09375 -11.210938 10.390625 -9.441406 10.984375 -8.140625 C 11.578125 -6.847656 12.359375 -5.914062 13.328125 -5.34375 C 14.296875 -4.769531 15.285156 -4.484375 16.296875 -4.484375 Z M 16.296875 -4.484375 "/></g></g></g></svg>